<svg xmlns="http://www.w3.org/2000/svg" viewBox="0 0 720 540" fill="none" role="img" aria-label="Rose Quartz gemstone graphic">
  <defs>
    <radialGradient id="bg" cx="50%" cy="42%" r="72%"><stop offset="0%" stop-color="#ffffff"/><stop offset="55%" stop-color="#ffffff"/><stop offset="100%" stop-color="#de4949"/></radialGradient>
    <linearGradient id="facet" x1="164" y1="96" x2="540" y2="430" gradientUnits="userSpaceOnUse"><stop stop-color="#ffffff"/><stop offset="1" stop-color="#ea7070"/></linearGradient>
    <linearGradient id="bead" x1="0" y1="0" x2="1" y2="1"><stop stop-color="#ffffff"/><stop offset="1" stop-color="#ea7070"/></linearGradient>
    <filter id="blur" x="-20%" y="-20%" width="140%" height="140%"><feGaussianBlur stdDeviation="18"/></filter>
  </defs>
  <rect width="720" height="540" rx="40" fill="#F8F4EE"/>
  <circle cx="360" cy="250" r="150" fill="#ffffff" opacity="0.25" filter="url(#blur)"/>
  <path d="M360 78 514 170 462 382 258 382 206 170 360 78Z" fill="url(#bg)"/>
  <path d="M360 96 492 176 447 360 273 360 228 176 360 96Z" fill="url(#facet)" stroke="#f4efe8" stroke-opacity="0.32" stroke-width="2"/>
  <path d="M360 96 360 360M228 176h264M273 360l87-184 87 184M228 176l132 86 132-86" stroke="#f4efe8" stroke-opacity="0.28" stroke-width="2"/>
  <path d="M360 124 462 188 424 332 296 332 258 188 360 124Z" fill="#ffffff" opacity="0.35"/>
  <g opacity="0.96">
    <circle cx="212" cy="422" r="26" fill="url(#bead)"/><circle cx="268" cy="452" r="20" fill="url(#bead)"/><circle cx="328" cy="470" r="18" fill="url(#bead)"/>
    <circle cx="392" cy="474" r="18" fill="url(#bead)"/><circle cx="452" cy="456" r="20" fill="url(#bead)"/><circle cx="508" cy="426" r="26" fill="url(#bead)"/>
    <path d="M212 422c24 30 62 48 116 52 40 4 88-5 180-48" stroke="#f4efe8" stroke-opacity="0.28" stroke-width="7" stroke-linecap="round"/>
  </g>
  <circle cx="302" cy="186" r="18" fill="#fff" opacity="0.14"/><circle cx="424" cy="160" r="10" fill="#fff" opacity="0.18"/>
</svg>